#!OML:ASF H:\BabyWalks\Project 1\Capture day 1\Session 1\baby.ASF
:FULLY-SPECIFIED
:DEGREES
829
root 40.7606 17.1689 1.6017 436.923 96.4982 439.139
lowerback 19.2961 0.513726 6.28215
upperback 4.88999 2.39059 2.2779
thorax -5.35382 1.2624 -1.69768
lowerneck -0.169091 -2.54667 2.80881
upperneck -12.7149 -3.67447 -5.57255
head -4.35744 -1.58612 -2.26068
rclavicle -2.83268e-014 -1.5704e-014
rhumerus -42.2539 10.048 -80.5089
rradius 48.3814
rwrist 0.81399
rhand -11.4011 -15.652
rfingers 7.12502
rthumb 14.6341 -45.1156
lclavicle -2.83268e-014 -1.5704e-014
lhumerus -58.9013 -10.5433 78.7323
lradius 48.4258
lwrist 2.65157
lhand -1.01304 5.21561
lfingers 7.12502
lthumb 24.6197 33.6522
rfemur 5.89358 14.8335 29.2146
rtibia 19.5877
rfoot -21.6356 1.21957
rtoes 2.70316
lfemur -25.3768 -12.0338 -3.03871
ltibia 26.7177
lfoot -13.8328 -6.44251
ltoes -7.30688
830
root 40.8554 17.1305 1.55282 440.662 96.9517 442.957
lowerback 19.1857 0.507329 6.52496
upperback 4.91371 2.42252 2.32219
thorax -5.2588 1.28 -1.79039
lowerneck -0.0144382 -2.4359 2.93739
upperneck -12.8373 -3.50703 -5.41105
head -4.42211 -1.51438 -2.23529
rclavicle 3.04638e-014 1.61016e-014
rhumerus -42.2237 10.4226 -80.7415
rradius 49.119
rwrist 0.337485
rhand -11.6285 -15.6974
rfingers 7.12502
rthumb 14.415 -45.1768
lclavicle 3.04638e-014 1.61016e-014
lhumerus -58.5879 -10.4095 78.6
lradius 48.38
lwrist 2.67794
lhand -0.975269 5.50473
lfingers 7.12502
lthumb 24.6559 33.9364
rfemur 6.32706 14.9702 29.7262
rtibia 19.5771
rfoot -21.9469 1.3062
rtoes 2.42872
lfemur -25.4878 -11.9744 -2.56058
ltibia 27.5266
lfoot -12.7732 -7.39101
ltoes -7.64151
831
root 40.9484 17.0958 1.50416 443.804 97.3522 446.174
lowerback 19.0959 0.502484 6.67542
upperback 4.95822 2.43792 2.34593
thorax -5.15652 1.29138 -1.84952
lowerneck 0.0905501 -2.30969 3.09194
upperneck -12.9938 -3.31705 -5.25859
head -4.48969 -1.43205 -2.21967
rclavicle -1.71452e-014 3.57812e-015
rhumerus -42.1306 10.7433 -80.9666
rradius 49.8315
rwrist -0.125654
rhand -11.8694 -15.7297
rfingers 7.12502
rthumb 14.1829 -45.2256
lclavicle -1.71452e-014 3.57812e-015
lhumerus -58.1653 -10.2715 78.4917
lradius 48.2287
lwrist 2.63522
lhand -1.01472 5.7636
lfingers 7.12502
lthumb 24.6181 34.2004
rfemur 6.74425 15.1138 30.1484
rtibia 19.5784
rfoot -22.2425 1.37791
rtoes 2.15717
lfemur -25.6276 -11.7763 -2.19953
ltibia 28.4162
lfoot -11.8342 -8.41678
ltoes -7.76178
832
root 41.0391 17.0652 1.4563 446.492 97.6578 448.928
lowerback 19.0302 0.505191 6.69451
upperback 5.02189 2.43683 2.33928
thorax -5.05203 1.29623 -1.86398
lowerneck 0.171625 -2.17147 3.26657
upperneck -13.5492 -3.1449 -5.26965
head -4.20337 -1.33028 -2.04576
rclavicle 1.34428e-014 2.55438e-014
rhumerus -41.9841 10.9961 -81.1875
rradius 50.5097
rwrist -0.563276
rhand -12.1293 -15.7453
rfingers 7.12502
rthumb 13.9324 -45.2586
lclavicle 1.34428e-014 2.55438e-014
lhumerus -57.6349 -10.1446 78.4074
lradius 47.9737
lwrist 2.51123
lhand -1.13932 5.99251
lfingers 7.12502
lthumb 24.4987 34.4456
rfemur 7.12159 15.2584 30.4419
rtibia 19.634
rfoot -22.5411 1.43816
rtoes 1.87307
lfemur -25.7807 -11.4235 -2.00444
ltibia 29.3719
lfoot -11.1464 -9.44215
ltoes -7.6411
833
root 41.1268 17.039 1.41013 448.859 97.8321 451.357
lowerback 18.9967 0.522725 6.54893
upperback 5.10519 2.42293 2.29402
thorax -4.95008 1.29607 -1.82495
lowerneck 0.181247 -2.02353 3.43494
upperneck -13.7633 -2.9187 -5.08915
head -4.26032 -1.23215 -2.02754
rclavicle -9.19379e-016 -1.52567e-014
rhumerus -41.7956 11.1533 -81.4003
rradius 51.1559
rwrist -0.968085
rhand -12.3976 -15.7488
rfingers 7.12502
rthumb 13.6738 -45.2796
lclavicle -9.19379e-016 -1.52567e-014
lhumerus -56.995 -10.0419 78.3444
lradius 47.6212
lwrist 2.281
lhand -1.34899 6.19218
lfingers 7.12502
lthumb 24.2977 34.6723
rfemur 7.44096 15.4001 30.5757
rtibia 19.7866
rfoot -22.8606 1.47783
rtoes 1.55488
lfemur -25.9196 -10.9187 -2.01469
ltibia 30.3621
lfoot -10.7974 -10.3747
ltoes -7.42622
834
root 41.2115 17.0169 1.36625 451.006 97.8507 453.567
lowerback 18.9964 0.56032 6.22389
upperback 5.20651 2.40018 2.20197
thorax -4.85279 1.29236 -1.73364
lowerneck 0.14566 -1.87812 3.58582
upperneck -13.9858 -2.69063 -4.87032
head -4.31174 -1.13455 -1.99528
rclavicle -5.86648e-015 -1.71452e-015
rhumerus -41.5837 11.1953 -81.6083
rradius 51.7652
rwrist -1.32821
rhand -12.6771 -15.7286
rfingers 7.12502
rthumb 13.4044 -45.2774
lclavicle -5.86648e-015 -1.71452e-015
lhumerus -56.2531 -9.99113 78.3
lradius 47.1933
lwrist 1.95421
lhand -1.61725 6.38797
lfingers 7.12502
lthumb 24.0405 34.9023
rfemur 7.69505 15.5298 30.5285
rtibia 20.0578
rfoot -23.2128 1.49669
rtoes 1.19432
lfemur -26.0235 -10.302 -2.24707
ltibia 31.3457
lfoot -10.7839 -11.2051
ltoes -7.05524
